<svg xmlns="http://www.w3.org/2000/svg" xmlns:xlink="http://www.w3.org/1999/xlink" xml:space="preserve" width="70.5647mm" height="22.2596mm" style="shape-rendering:geometricPrecision; text-rendering:geometricPrecision; image-rendering:optimizeQuality; fill-rule:evenodd; clip-rule:evenodd" viewBox="0 0 7024.23 2215.79">
 <defs>
  <style type="text/css">
   <![CDATA[
    .fil0 {fill:#0372A8}
    .fil1 {fill:#FBCA0C}
    .fil2 {fill:#001930;fill-rule:nonzero}
   ]]>
  </style>
 </defs>
 <g id="Layer_x0020_1">
  <metadata id="CorelCorpID_0Corel-Layer"></metadata>
  <path class="fil0" d="M835.7 0c428.77,0 782.15,323.07 830.12,738.99l0.14 0c3.65,31.64 5.58,63.81 5.58,96.4 0,161.47 -45.93,312.19 -125.5,439.8l0.32 0.32c-51.52,83.09 -117.19,156.41 -193.64,216.71l0 241.35 -1034 0 0 -241.28c-194.09,-153.04 -318.72,-390.25 -318.72,-656.58 0,-461.47 374.23,-835.7 835.7,-835.7zm694.22 835.7c0,-383.33 -310.89,-694.18 -694.22,-694.18 -383.3,0 -694.18,310.85 -694.18,694.18 0,177.97 67.03,340.32 177.2,463.18 40.11,44.7 85.9,84.21 136.28,117.33l0 37.82 0.04 0 0 143.2 761.4 0 0 -181.02c50.36,-33.12 96.19,-72.63 136.28,-117.36 64.3,-71.78 116.28,-159.96 145.6,-251.89 21.56,-67.63 31.6,-137.52 31.6,-211.26z"></path>
  <path class="fil0" d="M545.08 1804.57l582.79 0c47.16,0 85.79,38.63 85.79,85.8l0 0c0,47.19 -38.62,85.83 -85.79,85.83l-582.79 0c-47.16,0 -85.79,-38.63 -85.79,-85.83l0 0c0,-47.16 38.62,-85.8 85.79,-85.8z"></path>
  <path class="fil0" d="M666.37 2061.98l340.21 0c42.32,0 76.91,34.59 76.91,76.87l0 0.04c0,42.32 -34.59,76.91 -76.91,76.91l-340.21 0c-42.32,0 -76.91,-34.59 -76.91,-76.91l0 -0.04c0,-42.28 34.59,-76.87 76.91,-76.87z"></path>
  <path class="fil1" d="M809.05 318.19l53.48 0c267.87,0 487.03,219.16 487.03,487.06l0 53.48 0 3.93 0 1.69 0 266.39c0,32.52 -26.59,59.11 -59.07,59.11l0 0c-31.33,0 -57.17,-24.69 -58.99,-55.59l-0.08 0.14 0 -329.15c0,-202.87 -166.03,-368.9 -368.9,-368.9l-53.48 0c-202.9,0 -368.86,166.03 -368.86,368.9l0 53.48c0,192.37 149.24,351.59 337.68,367.53l0 -322.58c0,-31.85 26.05,-57.91 57.94,-57.91l0 0c31.81,0 57.86,26.06 57.86,57.91l0 442.08 -115.81 0 0 -1.02c-253.48,-16.2 -455.89,-228.61 -455.89,-486.02l0 -53.48c0,-267.9 219.16,-487.06 487.06,-487.06zm26.77 276.93c41.36,0 74.9,33.54 74.9,74.91 0,41.4 -33.54,74.94 -74.9,74.94 -41.41,0 -74.95,-33.54 -74.95,-74.94 0,-41.37 33.54,-74.91 74.95,-74.91z"></path>
  <path class="fil2" d="M2482.4 1247.27l-132.18 -305.94 -131.13 305.94 263.31 0zm-192.31 -466.57l124.56 0 336.57 770.32 -142.05 0 -77.61 -184.64 -361.63 0 -78.69 184.64 -137.66 0 336.52 -770.32z"></path>
  <path class="fil2" d="M3326.84 1165.31c48.25,0 86.7,-11.45 115.11,-34.59 28.59,-22.93 42.77,-54.26 42.77,-93.76l0 -2.22c0,-41.68 -13.81,-73.35 -41.69,-94.88 -27.66,-21.66 -66.82,-32.41 -117.28,-32.41l-196.13 0 0 257.87 197.21 0zm-330.48 -379.12l340.88 0c48.08,0 90.7,6.74 127.86,20.23 37.12,13.45 68.09,32.2 92.84,56.25 20.41,21.14 36.06,45.51 46.98,73.18 10.93,27.71 16.4,58.29 16.4,91.8l0 2.21c0,31.29 -4.57,59.53 -13.66,84.67 -9.1,25.13 -21.67,47.33 -37.72,66.64 -16.02,19.28 -35.12,35.68 -57.35,49.16 -22.23,13.49 -46.82,23.85 -73.74,31.15l206.51 289.54 -158.44 0 -188.46 -266.61 -168.84 0 0 266.61 -133.27 0 0 -764.84z"></path>
  <polygon class="fil2" points="3907.98,1551.03 4041.29,1551.03 4041.29,786.18 3907.98,786.18 "></polygon>
  <polygon class="fil2" points="4360.7,786.19 4485.09,786.19 4893.92,1315.01 4893.92,786.19 5027.22,786.19 5027.22,1551.03 4914.85,1551.03 4494.01,1006.9 4494.01,1551.03 4360.7,1551.03 "></polygon>
  <path class="fil2" d="M5694.12 1564.13c-56.08,0 -107.82,-10.18 -155.15,-30.59 -47.34,-20.41 -88.53,-48.25 -123.29,-83.58 -34.8,-35.33 -62.09,-77.05 -81.96,-125.13 -19.84,-48.07 -29.67,-99.41 -29.67,-154.05l0 -2.18c0,-54.64 9.66,-105.8 29.15,-153.53 19.49,-47.69 46.82,-89.58 81.92,-125.65 35.16,-36.02 76.88,-64.43 124.95,-85.22 48.08,-20.75 101.25,-31.16 159.5,-31.16 34.98,0 66.86,2.96 95.62,8.75 28.77,5.86 55.18,14.05 79.23,24.62 24.02,10.53 46.25,23.1 66.65,37.68 20.37,14.57 39.68,30.59 57.9,48.08l-86.31 99.44c-30.59,-28.41 -63.03,-51.37 -97.27,-68.86 -34.24,-17.48 -73.18,-26.19 -116.86,-26.19 -36.45,0 -70.13,7.09 -101.11,21.27 -30.94,14.22 -57.7,33.51 -80.31,57.91 -22.58,24.41 -40.07,52.99 -52.43,85.79 -12.39,32.77 -18.57,67.74 -18.57,104.9l0 2.17c0,37.16 6.18,72.27 18.57,105.46 12.36,33.12 29.85,62.09 52.43,86.84 22.62,24.77 49.37,44.25 80.31,58.44 30.98,14.21 64.65,21.31 101.11,21.31 46.6,0 86.66,-8.92 120.17,-26.76 33.5,-17.84 66.64,-42.07 99.41,-72.66l86.31 87.41c-19.67,21.13 -40.25,39.89 -61.74,56.25 -21.49,16.39 -44.6,30.62 -69.35,42.63 -24.8,12 -51.9,21.1 -81.41,27.31 -29.52,6.18 -62.11,9.28 -97.79,9.28z"></path>
  <path class="fil2" d="M6625.41 1440.66c37.72,0 72.31,-7.1 103.98,-21.31 31.5,-14.19 58.47,-33.51 81.05,-57.87 22.41,-24.41 40.07,-53 52.64,-85.79 12.75,-32.77 19.1,-67.75 19.1,-104.9l0 -2.18c0,-37.15 -6.35,-72.3 -19.1,-105.46 -12.57,-33.11 -30.41,-61.91 -53.2,-86.31 -22.93,-24.37 -50.26,-43.86 -82.1,-58.43 -32.06,-14.57 -66.83,-21.84 -104.55,-21.84 -37.68,0 -72.27,7.09 -103.97,21.27 -31.51,14.22 -58.43,33.51 -81.05,57.91 -22.38,24.41 -40.04,52.99 -52.61,85.79 -12.75,32.77 -19.14,67.74 -19.14,104.9l0 2.17c0,37.16 6.39,72.27 19.14,105.46 12.57,33.12 30.41,61.92 53.17,86.28 22.96,24.44 50.25,43.9 82.14,58.47 32.05,14.57 66.82,21.84 104.5,21.84zm-2.18 123.47c-58.99,0 -112.89,-10.36 -161.71,-31.15 -48.78,-20.75 -90.67,-49 -125.64,-84.67 -34.94,-35.68 -62.26,-77.39 -81.93,-125.09 -19.66,-47.72 -29.49,-98.54 -29.49,-152.44l0 -2.18c0,-53.9 9.83,-104.72 29.49,-152.4 19.67,-47.72 47.34,-89.62 83.02,-125.68 35.72,-36.06 77.96,-64.65 126.77,-85.76 48.78,-21.14 102.69,-31.71 161.68,-31.71 59.03,0 112.94,10.4 161.72,31.16 48.81,20.78 90.7,48.99 125.64,84.7 34.98,35.68 62.29,77.35 81.96,125.09 19.66,47.72 29.49,98.53 29.49,152.44l0 2.17c0,53.9 -9.83,104.72 -29.49,152.41 -19.67,47.72 -47.34,89.62 -83.02,125.68 -35.72,36.02 -77.95,64.64 -126.77,85.76 -48.82,21.1 -102.72,31.67 -161.72,31.67z"></path>
 </g>
</svg>