<?xml version="1.0" encoding="iso-8859-1"?>
<!-- Generator: Adobe Illustrator 19.0.0, SVG Export Plug-In . SVG Version: 6.00 Build 0)  -->
<svg version="1.1" id="Layer_1" xmlns="http://www.w3.org/2000/svg" xmlns:xlink="http://www.w3.org/1999/xlink" x="0px" y="0px"
	 viewBox="0 0 489.853 489.853" style="enable-background:new 0 0 489.853 489.853;" xml:space="preserve">
<g>
	<path style="fill:#71D1D1;" d="M336.775,218.137H443.93c4.227,0,7.653,3.427,7.653,7.654s-3.427,7.654-7.653,7.654H336.775v30.613
		c0.001-4.226,3.427-7.652,7.654-7.652h99.501c4.227,0,7.653,3.427,7.653,7.654s-3.427,7.654-7.653,7.654h-99.501
		c-4.226,0-7.652-3.425-7.654-7.651v30.613H443.93c4.227,0,7.653,3.427,7.653,7.654v38.27c0,4.227-3.427,7.654-7.653,7.654H336.775
		v22.962h45.923c4.227,0,7.654,3.427,7.654,7.654s-3.427,7.654-7.654,7.654h-45.923v30.616h137.771V149.253H336.775V218.137z
		 M443.929,386.525h-30.616c-4.227,0-7.654-3.427-7.654-7.654s3.427-7.654,7.654-7.654h30.616c4.227,0,7.653,3.427,7.653,7.654
		C451.583,383.098,448.156,386.525,443.929,386.525z"/>
	<path style="fill:#A0E0E0;" d="M275.542,386.525c-4.227,0-7.654-3.427-7.654-7.654s3.427-7.654,7.654-7.654h61.232v-22.962h-61.232
		c-4.227,0-7.654-3.427-7.654-7.654v-38.27c0-4.227,3.427-7.654,7.654-7.654h61.232v-30.613c0-0.001,0-0.002,0-0.003v-0.002v-30.613
		h-61.232c-4.227,0-7.654-3.427-7.654-7.654s3.427-7.654,7.654-7.654h61.232v-68.885h-38.271v45.924
		c0,4.227-3.427,7.654-7.654,7.654h-76.54c-4.227,0-7.654-3.427-7.654-7.654v-45.924H137.66v38.271c0.036,0,0.072-0.001,0.109-0.001
		c59.086,0,107.156,48.07,107.156,107.155c0,59.086-48.069,107.155-107.156,107.155c-0.036,0-0.072-0.001-0.109-0.001v15.31h199.113
		v-30.616L275.542,386.525L275.542,386.525z M275.542,256.408h38.27c4.227,0,7.654,3.427,7.654,7.654s-3.427,7.654-7.654,7.654
		h-38.27c-4.227,0-7.654-3.427-7.654-7.654S271.316,256.408,275.542,256.408z"/>
	<rect x="394.179" y="309.985" style="fill:#FBB03B;" width="42.097" height="22.962"/>
	<rect x="283.196" y="309.985" style="fill:#FCC062;" width="110.983" height="22.962"/>
	<polygon style="fill:#FBB03B;" points="267.889,187.523 283.197,187.523 283.197,149.253 283.197,133.945 283.197,72.712 
		267.889,72.712 	"/>
	<path style="fill:#FCC062;" d="M235.882,187.523h32.007V72.712h-32.007V187.523z M252.58,88.02c4.227,0,7.653,3.427,7.653,7.654
		v68.885c0,4.227-3.427,7.654-7.653,7.654s-7.654-3.427-7.654-7.654V95.674C244.926,91.447,248.353,88.02,252.58,88.02z"/>
	<polygon style="fill:#FDD089;" points="221.964,149.253 221.964,187.523 235.882,187.523 235.882,72.712 221.964,72.712 
		221.964,133.945 	"/>
	<path style="fill:#D0F0F0;" d="M30.616,294.677c0-59.049,48.011-107.094,107.046-107.154v-38.271H15.307v267.888h122.355v-15.31
		C78.627,401.771,30.616,353.727,30.616,294.677z"/>
	<path style="fill:#FDD089;" d="M229.619,294.677c0-50.645-41.203-91.847-91.848-91.847s-91.847,41.202-91.847,91.847
		c0,23.239,8.68,44.486,22.962,60.681v-7.103c0-23.404,11.901-45.117,31.358-57.772c-5.281-7.479-8.396-16.59-8.396-26.421
		c0-25.322,20.601-45.924,45.923-45.924s45.923,20.601,45.923,45.924c0,9.831-3.115,18.942-8.396,26.421
		c19.457,12.655,31.359,34.37,31.359,57.772v7.103C220.939,339.163,229.619,317.916,229.619,294.677z"/>
	<path style="fill:#FBB03B;" d="M135.004,386.469c0.92,0.027,1.84,0.055,2.766,0.055c19.98,0,38.488-6.417,53.579-17.292v-20.978
		c0-19.299-10.411-37.12-27.197-46.638c-7.471,5.264-16.568,8.368-26.382,8.368c-1.259,0-2.505-0.053-3.738-0.153
		C130.001,321.62,125.277,346.464,135.004,386.469z"/>
	<path style="fill:#FCC062;" d="M134.032,309.832c-8.381-0.681-16.13-3.626-22.643-8.215c-16.786,9.517-27.197,27.338-27.197,46.638
		v20.978c14.391,10.371,31.892,16.673,50.811,17.236C125.277,346.464,130.001,321.62,134.032,309.832z"/>
	<path style="fill:#FBB03B;" d="M137.771,233.446c-1.513,0-3,0.115-4.455,0.328c-5.167,10.602-11.617,32.196,0.88,60.688
		c1.174,0.137,2.365,0.216,3.575,0.216c16.882,0,30.616-13.734,30.616-30.616S154.653,233.446,137.771,233.446z"/>
	<path style="fill:#FCC062;" d="M133.316,233.773c-14.777,2.164-26.161,14.92-26.161,30.288c0,15.672,11.838,28.623,27.041,30.4
		C121.699,265.969,128.149,244.376,133.316,233.773z"/>
	<path d="M482.199,133.945H298.504V65.059c0-4.227-3.427-7.654-7.654-7.654h-76.54c-4.227,0-7.654,3.427-7.654,7.654v68.886H7.654
		c-4.227,0-7.654,3.427-7.654,7.654v283.196c0,4.227,3.427,7.654,7.654,7.654h474.545c4.227,0,7.654-3.427,7.654-7.654V141.599
		C489.852,137.372,486.426,133.945,482.199,133.945z M474.545,417.141h-137.77H137.662H15.307V149.253h122.355h68.995v45.924
		c0,4.227,3.427,7.654,7.654,7.654h76.54c4.227,0,7.654-3.427,7.654-7.654v-45.924h38.271h137.771v267.888H474.545z M221.964,72.712
		h13.919h32.007h15.308v61.232v15.308v38.27H267.89h-32.007h-13.919v-38.27v-15.308V72.712z"/>
	<path style="fill:#FFFFFF;" d="M244.926,164.56c0,4.227,3.427,7.654,7.654,7.654s7.653-3.427,7.653-7.654V95.674
		c0-4.227-3.427-7.654-7.653-7.654s-7.654,3.427-7.654,7.654V164.56z"/>
	<path d="M30.616,294.677c0,59.049,48.011,107.095,107.046,107.154c0.036,0,0.072,0.001,0.109,0.001
		c59.086,0,107.156-48.07,107.156-107.155s-48.069-107.155-107.156-107.155c-0.036,0-0.072,0.001-0.109,0.001
		C78.627,187.583,30.616,235.628,30.616,294.677z M84.193,348.254c0-19.3,10.41-37.121,27.197-46.638
		c6.513,4.589,14.261,7.534,22.643,8.215c1.233,0.1,2.48,0.153,3.738,0.153c9.814,0,18.911-3.104,26.382-8.368
		c16.786,9.518,27.197,27.339,27.197,46.638v20.978c-15.091,10.875-33.598,17.292-53.579,17.292c-0.926,0-1.846-0.028-2.766-0.055
		c-18.919-0.563-36.421-6.865-50.811-17.236v-20.979H84.193z M137.771,294.677c-1.21,0-2.402-0.078-3.575-0.216
		c-15.202-1.777-27.041-14.728-27.041-30.4c0-15.368,11.384-28.124,26.161-30.288c1.455-0.213,2.941-0.328,4.455-0.328
		c16.882,0,30.616,13.734,30.616,30.616S154.653,294.677,137.771,294.677z M175.298,290.482c5.281-7.479,8.396-16.59,8.396-26.421
		c0-25.322-20.601-45.924-45.923-45.924s-45.923,20.601-45.923,45.924c0,9.831,3.116,18.942,8.396,26.421
		c-19.457,12.656-31.358,34.369-31.358,57.772v7.103c-14.282-16.194-22.962-37.441-22.962-60.681
		c0-50.645,41.203-91.847,91.847-91.847c50.646,0,91.848,41.202,91.848,91.847c0,23.239-8.68,44.486-22.963,60.681v-7.103
		C206.656,324.852,194.755,303.137,175.298,290.482z"/>
	<path d="M267.889,302.331v38.27c0,4.227,3.427,7.654,7.654,7.654h61.232H443.93c4.227,0,7.653-3.427,7.653-7.654v-38.27
		c0-4.227-3.427-7.654-7.653-7.654H336.775h-61.232C271.316,294.677,267.889,298.103,267.889,302.331z M283.196,309.985h110.983
		h42.097v22.962h-42.097H283.196V309.985z"/>
	<path d="M267.889,225.792c0,4.227,3.427,7.654,7.654,7.654h61.232H443.93c4.227,0,7.653-3.427,7.653-7.654
		s-3.427-7.654-7.653-7.654H336.775h-61.232C271.316,218.137,267.889,221.564,267.889,225.792z"/>
	<path d="M275.542,271.715h38.27c4.227,0,7.654-3.427,7.654-7.654s-3.427-7.654-7.654-7.654h-38.27
		c-4.227,0-7.654,3.427-7.654,7.654S271.316,271.715,275.542,271.715z"/>
	<path d="M336.775,264.063c0.001,4.226,3.427,7.651,7.654,7.651h99.501c4.227,0,7.653-3.427,7.653-7.654s-3.427-7.654-7.653-7.654
		h-99.501c-4.226,0-7.652,3.425-7.654,7.652c0,0.001,0,0.002,0,0.002C336.775,264.063,336.775,264.063,336.775,264.063z"/>
	<path d="M267.889,378.87c0,4.227,3.427,7.654,7.654,7.654h61.232h45.923c4.227,0,7.654-3.427,7.654-7.654s-3.427-7.654-7.654-7.654
		h-45.923h-61.232C271.316,371.216,267.889,374.643,267.889,378.87z"/>
	<path d="M443.929,371.216h-30.616c-4.227,0-7.654,3.427-7.654,7.654s3.427,7.654,7.654,7.654h30.616
		c4.227,0,7.653-3.427,7.653-7.654C451.583,374.643,448.156,371.216,443.929,371.216z"/>
</g>
<g>
</g>
<g>
</g>
<g>
</g>
<g>
</g>
<g>
</g>
<g>
</g>
<g>
</g>
<g>
</g>
<g>
</g>
<g>
</g>
<g>
</g>
<g>
</g>
<g>
</g>
<g>
</g>
<g>
</g>
</svg>
