<svg xmlns="http://www.w3.org/2000/svg" width="43.172" height="57.229" viewBox="0 0 43.172 57.229"><g id="Arinco_Icon" data-name="Arinco Icon" transform="translate(0)"><path id="Path_29" data-name="Path 29" d="M21.584,0a21.59,21.59,0,0,1,21.44,19.086h0a21.719,21.719,0,0,1,.144,2.49,21.4,21.4,0,0,1-3.241,11.359l.008.008a21.693,21.693,0,0,1-5,5.6v6.234H8.232V38.542A21.584,21.584,0,0,1,21.584,0Zm17.93,21.584A17.926,17.926,0,1,0,11.751,36.577v.977h0v3.7H31.418V36.577a18.042,18.042,0,0,0,3.52-3.031A18.248,18.248,0,0,0,38.7,27.041a17.78,17.78,0,0,0,.816-5.456Z" fill="#0372a8" fill-rule="evenodd"></path><path id="Path_30" data-name="Path 30" d="M1380.086,5413.71h15.052a2.223,2.223,0,0,1,2.216,2.216h0a2.224,2.224,0,0,1-2.216,2.217h-15.052a2.224,2.224,0,0,1-2.216-2.217h0A2.223,2.223,0,0,1,1380.086,5413.71Z" transform="translate(-1366.007 -5367.102)" fill="#0372a8" fill-rule="evenodd"></path><path id="Path_31" data-name="Path 31" d="M1770.366,6185.939h8.787a1.992,1.992,0,0,1,1.986,1.986h0a1.992,1.992,0,0,1-1.986,1.986h-8.787a1.992,1.992,0,0,1-1.986-1.986h0A1.991,1.991,0,0,1,1770.366,6185.939Z" transform="translate(-1753.156 -6132.683)" fill="#0372a8" fill-rule="evenodd"></path><path id="Path_32" data-name="Path 32" d="M978.46,954.54h1.381a12.616,12.616,0,0,1,12.579,12.58v8.407a1.531,1.531,0,0,1-1.526,1.527h0a1.531,1.531,0,0,1-1.523-1.436l0,0v-8.5a9.557,9.557,0,0,0-9.528-9.528H978.46a9.555,9.555,0,0,0-9.527,9.528V968.5a9.558,9.558,0,0,0,8.721,9.492v-8.331a1.5,1.5,0,0,1,1.5-1.5h0a1.5,1.5,0,0,1,1.494,1.5V981.08h-2.991v-.026A12.62,12.62,0,0,1,965.88,968.5v-1.381a12.616,12.616,0,0,1,12.58-12.58Zm.691,7.152a1.935,1.935,0,1,1-1.936,1.935A1.935,1.935,0,0,1,979.152,961.693Z" transform="translate(-957.565 -946.322)" fill="#fbca0c" fill-rule="evenodd"></path></g></svg>